<svg id="Layer_1" enable-background="new 0 0 512 512" height="512" viewBox="0 0 512 512" width="512" xmlns="http://www.w3.org/2000/svg"><g><path d="m218.123 0h-52.123c-8.284 0-15 6.716-15 15v220.695c0 4.528 2.045 8.813 5.565 11.661l61.557 49.804h37.878v-265.953z" fill="#00c0f1"/><path d="m346 0h-52.123l-37.877 31.207v265.953h37.877l61.557-49.804c3.521-2.848 5.565-7.134 5.565-11.661v-220.695c.001-8.284-6.715-15-14.999-15zm0 235.695h.01z" fill="#00607f"/></g><g><path d="m218.123.161v296.999l28.443 23.012c2.751 2.226 6.093 3.339 9.435 3.339l13.845-167.582-13.846-155.768z" fill="#00607f"/><path d="m256 .161v323.35c3.342 0 6.684-1.113 9.435-3.339l28.443-23.012v-296.999z" fill="#00465f"/></g><g><g><path d="m241.034 305.104-19.588 60.285h-63.388c-6.818 0-12.86 4.39-14.966 10.874-2.107 6.484.201 13.587 5.716 17.594l51.282 37.258-19.588 60.285c-2.106 6.484.201 13.587 5.717 17.594s12.984 4.007 18.5 0l51.281-37.258 13.845-66.858-13.845-110.648c-6.818 0-12.86 4.39-14.966 10.874z" fill="#fdbf00"/></g><path d="m368.908 376.263c-2.106-6.484-8.148-10.874-14.966-10.874h-63.388l-19.588-60.285c-2.106-6.484-8.148-10.874-14.966-10.874v177.506l51.281 37.258c4.316 3.006 12.112 4.608 18.5 0 5.529-3.989 7.823-11.11 5.717-17.594l-19.588-60.285 51.282-37.258c5.515-4.007 7.823-11.11 5.716-17.594z" fill="#ff9102"/></g></svg>